<!-- <?xml version="1.0" encoding="utf-8"?> -->

<svg version="1.1" xmlns="http://www.w3.org/2000/svg" xmlns:xlink="http://www.w3.org/1999/xlink" x="0px" y="0px"
	 viewBox="0 0 249.5 101.1" enable-background="new 0 0 249.5 101.1" xml:space="preserve">
<g >
	<g>
		<g class="letters">
			<path fill="#595a5b" d="M54.5,55.1H43.2v19.4h-7.5V28.9c0-1.9,1.8-3.7,3.8-3.7h14.9c9.6,0,15.8,6.4,15.8,15
				C70.2,48.7,64.1,55.1,54.5,55.1 M54,31.9H43.2v16.4H54c5.2,0,8.7-3,8.7-8.2C62.8,34.9,59.2,31.9,54,31.9"/>
			<path fill="#595a5b" d="M71.3,74.5L59.9,58.2c0,0-1.3,0.6-5.1,0.6h-3.7l10.8,15.7L71.3,74.5z"/>
			<path fill="#595a5b" d="M118,25.4h6.5c4.3,0,7.5,2.4,7.5,6.9c0,3.4-2.3,6.9-7.3,6.9h-5.1v8.2h-4.1V27.7
				C115.5,26.4,116.6,25.4,118,25.4 M124,35.7c2.4,0,4-1.1,4-3.4c0-2.6-1.7-3.4-4-3.4h-4.3v6.9H124z"/>
			<path fill="#595a5b" d="M134.3,40.2v-7c0-5.2,4.4-8.1,8.8-8.1c4.8,0,9,3.1,9,8v6.6c0,5.2-4.4,8.1-8.8,8.1
				C138.4,47.8,134.3,45.1,134.3,40.2 M148,39.9v-7c0-2.7-2.3-4.2-4.9-4.2c-2.1,0-4.7,1.1-4.7,4.3v7c0,2.7,2.3,4.2,4.9,4.2
				C145.3,44.2,148,43.1,148,39.9"/>
			<polygon fill="#595a5b" points="153.7,25.4 157.9,25.4 161.4,40.8 161.4,40.8 165.5,25.4 169,25.4 173,40.9 173,40.9 176.6,25.4
				180.7,25.4 175,47.5 171.2,47.5 167.2,32 167.2,32 163.2,47.5 159.4,47.5 			"/>
			<path fill="#595a5b" d="M185.9,25.4H199V29h-11.2v5.4h9.9V36c0,1-0.8,2-1.8,2h-8.1v5.8h11.3v3.6h-15.4V27.5
				C183.8,26.5,184.8,25.4,185.9,25.4"/>
			<path fill="#595a5b" d="M204.7,25.4h6.9c4.1,0,7.5,2.4,7.5,6.9c0,2.6-1.4,5.3-4.4,6.4l5.5,8.7h-4.5l-5.2-8.2H207v8.2h-4.1V27.3
				C202.9,26.2,203.6,25.4,204.7,25.4 M211.1,35.7c2.4,0,4-1.1,4-3.4c0-2.6-1.7-3.4-4-3.4h-4v6.9H211.1z"/>
			<path fill="#595a5b" d="M117.4,51.6h6.8c4.1,0,7.5,2.4,7.5,6.9c0,2.6-1.4,5.3-4.4,6.4l5.5,8.7h-4.5l-5.2-8.2h-3.6v8.2h-4.1V53.5
				C115.5,52.4,116.2,51.6,117.4,51.6 M123.7,61.9c2.4,0,4-1.1,4-3.4c0-2.6-1.7-3.4-4-3.4h-4v6.9H123.7z"/>
			<path fill="#595a5b" d="M137.5,51.6h13.3v3.6h-11.2v5.4h9.9v1.7c0,1-0.7,1.9-1.7,1.9h-8.2V70h11.3v3.6h-15.4V53.5
				C135.5,52.5,136.4,51.6,137.5,51.6"/>
			<polygon fill="#595a5b" points="154.3,51.6 158.7,51.6 163.7,67.8 163.7,67.8 168.7,51.6 172.8,51.6 165.5,73.7 161.5,73.7
				"/>
			<path fill="#595a5b" d="M178.8,51.6h2v22h-4.1v-20C176.7,52.3,177.6,51.6,178.8,51.6"/>
			<path fill="#595a5b" d="M187.7,51.6H201v3.6h-11.2v5.4h9.9v1.7c0,1-0.6,1.9-1.8,1.9h-8.1V70h11.3v3.6h-15.4V53.6
				C185.7,52.3,186.5,51.6,187.7,51.6"/>
			<polygon fill="#595a5b" points="203.6,51.6 207.8,51.6 211.3,67 211.4,67 215.4,51.6 218.9,51.6 222.9,67.1 223,67.1 226.5,51.6
				230.6,51.6 224.9,73.7 221.1,73.7 217.2,58.2 217.1,58.2 213.2,73.7 209.3,73.7 			"/>
				<path fill="#595a5b" d="M230.8,68.5l3.6-1.4c0.8,2.1,2.8,3.3,5.2,3.3c2.2,0,4.2-0.8,4.2-2.8c0-1.6-1.3-2.3-3-2.8l-3.6-0.9
			c-2.9-0.7-5.2-2-5.2-5.8c0-4,3.5-6.4,7.7-6.4c3.6,0,6.2,1.2,7.6,4.4l-3.3,1.4c-0.9-1.8-2.5-2.5-4.6-2.5c-1.7,0-3.4,0.8-3.4,2.7
			c0,1.5,1.4,2.2,3.1,2.7l3.7,0.9c2.6,0.6,4.9,2.1,4.9,6c0,3.9-3.5,6.6-8.3,6.6C235.5,73.8,231.9,72.2,230.8,68.5"/>
		</g>

		<path fill="#75c68b" d="M9.2,50.7c0-10.5,3.3-19.6,10.2-27.5l-5.6-4.8c-8.1,9.3-12,20-12,32.4C1.9,78,24,100,51.2,99.9l0-7.4
			C28,92.6,9.2,73.9,9.2,50.7"/>
		<path fill="#fbb817" d="M92.6,56.4L92.6,56.4c-2.9,20.8-20.4,36.1-41.4,36.2h0l0,7.4c24.7-0.1,45.3-18,48.7-42.5L92.6,56.4z"/>
		<path fill="#53c7e6" d="M77.1,8.8L73.2,15c0,0,0,0,0,0c14.3,8.9,21.7,24.7,19.4,41.3l7.3,1C102.6,37.8,93.9,19.2,77.1,8.8"/>
		<path fill="#8cc540" d="M73.2,15l3.9-6.2C64.5,1,50.7-0.8,36.5,3.6l2.2,7c0,0,0,0,0,0C50.8,6.9,62.5,8.4,73.2,15"/>
		<path fill="#f05e24" d="M38.7,10.6l-2.2-7c-9.4,2.9-16.3,7.4-22.7,14.9l5.6,4.8c0,0,0,0,0,0C24.9,16.9,30.7,13.1,38.7,10.6"/>
	</g>
</g>

</svg>
