<!-- <?xml version="1.0" encoding="utf-8"?> -->
<svg version="1.1" xmlns="http://www.w3.org/2000/svg" xmlns:xlink="http://www.w3.org/1999/xlink" x="0px" y="0px"
	 viewBox="0 0 249.5 101.1" enable-background="new 0 0 249.5 101.1" xml:space="preserve">
<g > <!-- id="Layer_3" -->
	<g>
		<g class="letters">
			<path fill="#595a5b" d="M54.5,55.1H43.2v19.4h-7.5V28.9c0-1.9,1.8-3.7,3.8-3.7h14.9c9.6,0,15.8,6.4,15.8,15
				C70.2,48.7,64.1,55.1,54.5,55.1 M54,31.9H43.2v16.4H54c5.2,0,8.7-3,8.7-8.2C62.8,34.9,59.2,31.9,54,31.9"/>
			<path fill="#595a5b" d="M71.3,74.5L59.9,58.2c0,0-1.3,0.6-5.1,0.6h-3.7l10.8,15.7L71.3,74.5z"/>
		</g>

		<path fill="#75c68b" d="M9.2,50.7c0-10.5,3.3-19.6,10.2-27.5l-5.6-4.8c-8.1,9.3-12,20-12,32.4C1.9,78,24,100,51.2,99.9l0-7.4
			C28,92.6,9.2,73.9,9.2,50.7"/>
		<path fill="#fbb817" d="M92.6,56.4L92.6,56.4c-2.9,20.8-20.4,36.1-41.4,36.2h0l0,7.4c24.7-0.1,45.3-18,48.7-42.5L92.6,56.4z"/>
		<path fill="#53c7e6" d="M77.1,8.8L73.2,15c0,0,0,0,0,0c14.3,8.9,21.7,24.7,19.4,41.3l7.3,1C102.6,37.8,93.9,19.2,77.1,8.8"/>
		<path fill="#8cc540" d="M73.2,15l3.9-6.2C64.5,1,50.7-0.8,36.5,3.6l2.2,7c0,0,0,0,0,0C50.8,6.9,62.5,8.4,73.2,15"/>
		<path fill="#f05e24" d="M38.7,10.6l-2.2-7c-9.4,2.9-16.3,7.4-22.7,14.9l5.6,4.8c0,0,0,0,0,0C24.9,16.9,30.7,13.1,38.7,10.6"/>
	</g>
</g>

</svg>
